<svg width="20" height="20" viewBox="0 0 20 20" fill="none" xmlns="http://www.w3.org/2000/svg">
<path d="M0.5 10C0.5 15.525 4.86167 20 10.2411 20C14.5457 20 18.1962 17.135 19.4832 13.1625C19.5749 12.6625 19.2734 12.4792 19.0148 12.4792C18.7835 12.4792 18.1706 12.4875 17.3585 12.4917C17.9459 15.2733 16.0517 15.86 16.0517 15.86C14.9274 16.315 14.6267 16.9725 14.6267 16.9725C14.0228 17.8783 14.0352 16.9025 14.0352 16.9025C14.103 15.8983 15.0389 15.3708 15.0389 15.3708C16.5283 14.4792 16.0979 13.03 15.8493 12.4583C15.219 12.3683 14.7903 12.1108 14.5466 11.825C14.3029 14.0458 13.4652 16.38 9.73304 16.38C8.66988 16.38 7.80085 15.9925 7.11933 15.3508C6.87316 15.4633 5.8827 15.8008 4.54116 15.2633C4.54116 15.2633 4.28012 14.4258 5.53988 12.5133C5.32345 11.7133 5.21606 10.8633 5.2111 10.0133C5.21606 9.16333 5.32345 8.31333 5.53988 7.51333C4.28012 5.61333 4.54116 4.77583 4.54116 4.77583C5.8827 4.23833 6.87316 4.57583 7.11933 4.67583C7.80085 4.03833 8.66988 3.65083 9.73304 3.65083C13.4752 3.65083 14.2987 5.98833 14.5383 8.21333C14.8307 7.86333 15.428 7.53833 16.3408 7.53833C17.6444 7.53833 18.6918 7.55083 19.0082 7.55083C19.2635 7.55083 19.5683 7.37583 19.4708 6.86333C18.192 2.8625 14.5391 -6.1367e-07 10.2411 -4.25796e-07C4.86167 -1.90655e-07 0.499999 4.4775 0.5 10Z" fill="black"/>
</svg>
