<svg width="65" height="54" viewBox="0 0 65 54" fill="none" xmlns="http://www.w3.org/2000/svg">
<path d="M0.00292969 8.32721H15.1977V12.811H0.00292969V8.32721ZM0.00292969 0H15.1977V4.48378H0.00292969V0ZM27.2647 16.5902H0.00292969V21.074H26.2431C29.116 21.074 35.8195 21.1379 38.3095 25.1734V22.6754C37.0965 18.7039 33.5216 16.5902 27.2647 16.5902ZM27.3279 24.9172H0.00292969V29.401H26.2431C32.6274 29.401 36.6497 29.6572 38.3095 30.5541V28.5683C37.0325 25.4297 31.6698 24.9172 27.3284 24.9172M27.2649 46.0551H0.00292969V41.5713H26.2431C29.116 41.5713 35.8195 41.5074 38.3095 37.4719V39.9699C37.0965 43.9415 33.5213 46.0551 27.2644 46.0551M27.3279 37.7282H0.00292969V33.2444H26.2431C32.6274 33.2444 36.6497 32.9881 38.3095 32.0913V34.0771C37.0325 37.2157 31.6698 37.7282 27.3284 37.7282M44.9495 53.8059H64.9965V51.0514H45.5238C43.8 51.0514 39.7143 50.9875 38.2458 48.6173V50.1548C38.948 52.5247 41.119 53.8059 44.9495 53.8059ZM44.8856 48.7454H64.9328V45.9912H45.5238C41.6293 45.9912 39.2032 45.8631 38.2456 45.2866V46.5037C39.0115 48.4253 42.2678 48.7454 44.8856 48.7454Z" fill="#010101"/>
</svg>
