<svg width="66" height="66" viewBox="0 0 66 66" fill="none" xmlns="http://www.w3.org/2000/svg">
<path fill-rule="evenodd" clip-rule="evenodd" d="M33 0.625C39.4032 0.625 45.6625 2.52376 50.9866 6.08117C56.3106 9.63858 60.4602 14.6949 62.9106 20.6106C65.361 26.5264 66.0021 33.0359 64.7529 39.316C63.5037 45.5962 60.4203 51.3649 55.8926 55.8926C51.3649 60.4203 45.5962 63.5037 39.316 64.7529C33.0359 66.0021 26.5264 65.361 20.6106 62.9106C14.6949 60.4602 9.63858 56.3106 6.08117 50.9866C2.52376 45.6625 0.625 39.4032 0.625 33C0.625 24.4136 4.03593 16.1789 10.1074 10.1074C16.1789 4.03593 24.4136 0.625 33 0.625Z" fill="#CC6699"/>
<path d="M53.3086 14.4814C51.8425 8.73255 42.3081 6.85017 33.2847 10.046C27.6335 11.9447 22.4124 14.9395 17.9204 18.859C12.9509 23.5071 12.1577 27.554 12.4838 29.2444C13.64 35.2107 21.8101 39.1095 25.1701 42.0025V42.0187C24.1804 42.5066 16.9284 46.1812 15.2264 49.9274C13.4365 53.8864 15.5108 56.7262 16.8868 57.1077C18.9526 57.6051 21.1222 57.4432 23.0914 56.6449C25.0605 55.8465 26.7303 54.4517 27.8665 52.6562C28.8062 51.2017 29.3941 49.5483 29.5835 47.8271C29.773 46.1059 29.5588 44.3642 28.958 42.7402C30.5761 42.3267 32.2589 42.2301 33.9137 42.4557C39.5932 43.1194 40.7078 46.6645 40.4951 48.1491C40.395 48.6776 40.1823 49.1783 39.8715 49.6172C39.5606 50.0562 39.1589 50.423 38.6936 50.6929C38.2959 50.9403 38.1733 51.0235 38.208 51.2085C38.2566 51.4745 38.4393 51.4652 38.7792 51.4074C39.6327 51.1386 40.3847 50.6176 40.9362 49.9129C41.4877 49.2083 41.8128 48.3531 41.8687 47.46C42.0051 43.9912 38.6728 40.0924 32.7713 40.1918C31.0572 40.1413 29.3466 40.3758 27.7093 40.8855L27.4595 40.6081C23.8104 36.7161 17.0671 33.9619 17.3516 28.7287C17.4556 26.8255 18.117 21.8167 30.3016 15.7394C40.2916 10.7606 48.2882 12.1319 49.6711 15.1682C51.6459 19.5065 45.3976 27.5655 35.0237 28.7287C33.8771 28.9615 32.6928 28.9331 31.5587 28.6457C30.4246 28.3582 29.3697 27.8191 28.4724 27.0684C27.9266 26.4671 27.8457 26.4417 27.6422 26.5527C27.3115 26.7354 27.5219 27.2672 27.6422 27.5817C28.0395 28.2976 28.5757 28.9269 29.2194 29.4327C29.8631 29.9386 30.6013 30.311 31.3908 30.5279C35.4696 31.4129 39.7234 30.9922 43.5499 29.3254C49.8422 26.8995 54.7493 20.1355 53.3086 14.4814ZM26.5669 43.7831C27.0239 45.3668 27.0006 47.0505 26.4998 48.6209C26.4459 48.7843 26.3865 48.9462 26.3218 49.1065C26.257 49.2668 26.1869 49.421 26.1113 49.569C25.7196 50.3638 25.2157 51.0982 24.6151 51.7497C22.7351 53.8009 20.1058 54.5779 18.9796 53.9234C17.7632 53.2181 18.3714 50.3252 20.5521 48.0196C22.2282 46.3634 24.16 44.9876 26.2732 43.945L26.5669 43.7831Z" fill="white"/>
</svg>
